<?xml version="1.0" encoding="utf-8"?>
<!-- Generator: Adobe Illustrator 27.7.0, SVG Export Plug-In . SVG Version: 6.00 Build 0)  -->
<svg version="1.1" id="Laag_1" xmlns="http://www.w3.org/2000/svg" xmlns:xlink="http://www.w3.org/1999/xlink" x="0px" y="0px"
	 viewBox="0 0 172.84 165.13" style="enable-background:new 0 0 172.84 165.13;" xml:space="preserve">
<g>
	<path d="M70.21,100.43c5.84,0,10.58,4.74,10.58,10.58s-4.74,10.58-10.58,10.58s-10.58-4.74-10.58-10.58S64.37,100.43,70.21,100.43
		 M70.21,90.43c-11.35,0-20.58,9.23-20.58,20.58s9.23,20.58,20.58,20.58s20.58-9.23,20.58-20.58S81.56,90.43,70.21,90.43
		L70.21,90.43z"/>
	<path d="M54.1,71.66c3.43,0,6.47,1.63,8.4,4.16c1.9,2.49,4.76,4.08,7.89,4.08h0.28c3.08,0,5.96-1.48,7.79-3.95
		c1.93-2.6,5.01-4.29,8.5-4.29c6.24,0,11.22,5.4,10.51,11.79c-0.54,4.91-4.58,8.86-9.5,9.32c-0.34,0.03-0.68,0.05-1.02,0.05
		c-3.43,0-6.47-1.63-8.4-4.16c-1.9-2.49-4.76-4.08-7.89-4.08h-0.28c-3.08,0-5.96,1.48-7.79,3.95c-1.93,2.6-5.01,4.29-8.5,4.29
		c-6.24,0-11.22-5.4-10.51-11.79c0.54-4.91,4.58-8.86,9.5-9.32C53.43,71.67,53.77,71.66,54.1,71.66 M86.96,61.66
		c-6.43,0-12.55,3.06-16.43,8.19c-0.03-0.03-0.06-0.06-0.09-0.1c-3.93-5.14-9.88-8.09-16.35-8.09c-0.65,0-1.3,0.03-1.95,0.09
		c-9.65,0.9-17.44,8.55-18.5,18.18c-0.65,5.84,1.22,11.68,5.12,16.04c3.9,4.36,9.49,6.86,15.34,6.86c6.43,0,12.55-3.06,16.43-8.19
		c0.03,0.03,0.06,0.06,0.09,0.1c3.93,5.14,9.88,8.09,16.35,8.09c0.65,0,1.3-0.03,1.95-0.09c9.65-0.9,17.44-8.55,18.5-18.18
		c0.65-5.84-1.22-11.68-5.12-16.04C98.4,64.16,92.81,61.66,86.96,61.66L86.96,61.66z"/>
	<path d="M70.21,43.22c3.43,0,6.47,1.63,8.4,4.16c1.9,2.49,4.76,4.08,7.89,4.08h0.28c3.08,0,5.96-1.48,7.79-3.95
		c1.93-2.6,5.01-4.29,8.5-4.29c6.24,0,11.22,5.4,10.51,11.79c-0.54,4.91-4.58,8.86-9.5,9.32c-0.34,0.03-0.68,0.05-1.02,0.05
		c-3.43,0-6.47-1.63-8.4-4.16c-1.9-2.49-4.76-4.08-7.89-4.08H86.5c-3.08,0-5.96,1.48-7.79,3.95c-1.93,2.6-5.01,4.29-8.5,4.29
		c-6.24,0-11.22-5.4-10.51-11.79c0.54-4.91,4.58-8.86,9.5-9.32C69.54,43.24,69.88,43.22,70.21,43.22 M103.07,33.22
		c-6.43,0-12.55,3.06-16.43,8.19c-0.03-0.03-0.06-0.06-0.09-0.1c-3.93-5.14-9.88-8.09-16.35-8.09c-0.65,0-1.3,0.03-1.95,0.09
		c-9.65,0.9-17.44,8.55-18.5,18.18c-0.65,5.84,1.22,11.68,5.12,16.04c3.9,4.36,9.49,6.86,15.34,6.86c6.43,0,12.55-3.06,16.43-8.19
		c0.03,0.03,0.06,0.06,0.09,0.1c3.93,5.14,9.88,8.09,16.35,8.09c0.65,0,1.3-0.03,1.95-0.09c9.65-0.9,17.44-8.55,18.5-18.18
		c0.65-5.84-1.22-11.68-5.12-16.04C114.51,35.72,108.92,33.22,103.07,33.22L103.07,33.22z"/>
	<path d="M119.97,71.87c2.18,0,4.4,0.68,6.33,2.11c3.96,2.94,5.35,8.42,3.26,12.9c-1.62,3.5-4.83,5.63-8.3,6.06
		c-3.11,0.39-5.92,2.05-7.5,4.76l-0.14,0.24c-1.55,2.66-1.73,5.89-0.52,8.72c1.27,2.97,1.17,6.49-0.58,9.5
		c-1.97,3.37-5.51,5.25-9.15,5.25c-2.18,0-4.4-0.68-6.33-2.11c-3.96-2.94-5.35-8.42-3.26-12.9c1.62-3.5,4.83-5.63,8.3-6.06
		c3.11-0.39,5.92-2.05,7.5-4.76l0.14-0.24c1.55-2.66,1.73-5.89,0.52-8.72c-1.27-2.97-1.17-6.49,0.58-9.5
		C112.79,73.75,116.33,71.87,119.97,71.87 M119.97,61.87c-7.29,0-14.11,3.91-17.78,10.21c-3.24,5.55-3.69,12.38-1.21,18.31
		c-0.04,0.01-0.08,0.02-0.13,0.02c-7.08,0.88-13.11,5.28-16.13,11.77c-4.09,8.79-1.41,19.37,6.37,25.14
		c3.6,2.67,7.85,4.08,12.3,4.08c7.29,0,14.11-3.91,17.78-10.21c3.24-5.55,3.69-12.38,1.21-18.31c0.04-0.01,0.08-0.02,0.13-0.02
		c7.08-0.88,13.11-5.28,16.13-11.77c4.09-8.79,1.41-19.37-6.37-25.14C128.67,63.28,124.42,61.87,119.97,61.87L119.97,61.87z"/>
</g>
</svg>
